<svg width="12" height="11" viewBox="0 0 12 11" fill="none" xmlns="http://www.w3.org/2000/svg">
<path fill-rule="evenodd" clip-rule="evenodd" d="M8.40545 7.3755C8.60727 7.1775 8.72727 6.9025 8.72727 6.6V1.1C8.72727 0.495001 8.23636 0 7.63636 0H2.72727C2.27454 0 1.88727 0.275 1.72364 0.671L0.0763626 4.5485C0.0272717 4.675 0 4.807 0 4.95V6.05C0 6.655 0.490909 7.15 1.09091 7.15H4.53273L4.01455 9.6635L3.99818 9.8395C3.99818 10.065 4.09091 10.274 4.23818 10.4225L4.81636 11L8.40545 7.3755ZM4.81351 9.91155L7.88884 6.80588L7.89279 6.802C7.94794 6.7479 7.97727 6.67846 7.97727 6.6V1.1C7.97727 0.956973 7.84943 0.785714 7.63636 0.785714H2.72727C2.5672 0.785714 2.45424 0.880703 2.41191 0.983144L2.40887 0.990493L0.767832 4.85323C0.754723 4.88941 0.75 4.91898 0.75 4.95V6.05C0.75 6.19303 0.877846 6.36429 1.09091 6.36429H5.462L4.7568 9.78493L4.75106 9.84675C4.75273 9.84978 4.75503 9.85302 4.75781 9.85592L4.81351 9.91155ZM9.81818 0H12V6.6H9.81818V0ZM10.5682 5.81429H11.25V0.785714H10.5682V5.81429Z" fill="#3D3C38"/>
<path d="M7.89279 6.802L7.88884 6.80588L4.81351 9.91155L4.75781 9.85592C4.75503 9.85302 4.75273 9.84978 4.75106 9.84675L4.7568 9.78493L5.462 6.36429H1.09091C0.877846 6.36429 0.75 6.19303 0.75 6.05V4.95C0.75 4.91898 0.754723 4.88941 0.767832 4.85323L2.40887 0.990493L2.41191 0.983144C2.45424 0.880703 2.5672 0.785714 2.72727 0.785714H7.63636C7.84943 0.785714 7.97727 0.956973 7.97727 1.1V6.6C7.97727 6.67846 7.94794 6.7479 7.89279 6.802Z" fill="#3D3C38"/>
<path d="M11.25 5.81429H10.5682V0.785714H11.25V5.81429Z" fill="#3D3C38"/>
</svg>
