<svg width="18" height="15" viewBox="0 0 18 15" fill="none" xmlns="http://www.w3.org/2000/svg">
<path fill-rule="evenodd" clip-rule="evenodd" d="M9.00026 2.16067L8.30769 1.481C6.54288 -0.256696 3.67419 -0.537941 1.74766 1.02565C-0.460107 2.82026 -0.57612 6.04118 1.39962 7.98646L8.20223 14.6761C8.64167 15.108 9.35533 15.108 9.79478 14.6761L16.5974 7.98646C18.5766 6.04118 18.4606 2.82026 16.2529 1.02565C14.3263 -0.537941 11.4611 -0.256696 9.69282 1.481L9.00026 2.16067ZM9.09381 13.9629C9.07065 13.9855 9.03812 14 8.9985 14C8.95877 14 8.92637 13.9856 8.90319 13.9629L2.10121 7.27388C2.10128 7.27394 2.10115 7.27381 2.10121 7.27388C0.547593 5.744 0.636304 3.21797 2.37816 1.80184C3.86827 0.592749 6.16536 0.774972 7.60608 2.19356L9.00026 3.56179L10.3933 2.19471C11.8382 0.774772 14.133 0.59304 15.6227 1.8021C17.3642 3.21824 17.4529 5.7435 15.8964 7.27325L9.09381 13.9629Z" fill="#FED42F"/>
</svg>
