<svg width="14" height="12" viewBox="0 0 14 12" fill="none" xmlns="http://www.w3.org/2000/svg">
<path d="M12.6875 0.75H1.3125C0.587617 0.75 0 1.33762 0 2.0625V9.9375C0 10.6624 0.587617 11.25 1.3125 11.25H12.6875C13.4124 11.25 14 10.6624 14 9.9375V2.0625C14 1.33762 13.4124 0.75 12.6875 0.75ZM12.5234 9.9375H1.47656C1.43305 9.9375 1.39132 9.92021 1.36055 9.88945C1.32979 9.85868 1.3125 9.81695 1.3125 9.77344V2.22656C1.3125 2.18305 1.32979 2.14132 1.36055 2.11055C1.39132 2.07979 1.43305 2.0625 1.47656 2.0625H12.5234C12.5669 2.0625 12.6087 2.07979 12.6394 2.11055C12.6702 2.14132 12.6875 2.18305 12.6875 2.22656V9.77344C12.6875 9.81695 12.6702 9.85868 12.6394 9.88945C12.6087 9.92021 12.5669 9.9375 12.5234 9.9375ZM3.5 3.15625C2.89595 3.15625 2.40625 3.64595 2.40625 4.25C2.40625 4.85405 2.89595 5.34375 3.5 5.34375C4.10405 5.34375 4.59375 4.85405 4.59375 4.25C4.59375 3.64595 4.10405 3.15625 3.5 3.15625ZM2.625 8.625H11.375V6.4375L8.98201 4.04451C8.85388 3.91638 8.64612 3.91638 8.51796 4.04451L5.25 7.3125L4.16951 6.23201C4.04138 6.10388 3.83362 6.10388 3.70546 6.23201L2.625 7.3125V8.625Z" fill="#2F80ED"/>
</svg>
