<svg width="12" height="11" viewBox="0 0 12 11" fill="none" xmlns="http://www.w3.org/2000/svg">
<path fill-rule="evenodd" clip-rule="evenodd" d="M3.59455 3.6245C3.39273 3.8225 3.27273 4.0975 3.27273 4.4V9.9C3.27273 10.505 3.76364 11 4.36364 11H9.27273C9.72546 11 10.1127 10.725 10.2764 10.329L11.9236 6.4515C11.9727 6.325 12 6.193 12 6.05V4.95C12 4.345 11.5091 3.85 10.9091 3.85H7.46727L7.98545 1.3365L8.00182 1.1605C8.00182 0.935 7.90909 0.726 7.76182 0.5775L7.18364 0L3.59455 3.6245ZM7.18649 1.08845L4.11116 4.19412L4.10721 4.198C4.05206 4.2521 4.02273 4.32154 4.02273 4.4V9.9C4.02273 10.043 4.15057 10.2143 4.36364 10.2143H9.27273C9.4328 10.2143 9.54576 10.1193 9.58809 10.0169L9.59113 10.0095L11.2322 6.14677C11.2453 6.11059 11.25 6.08102 11.25 6.05V4.95C11.25 4.80697 11.1222 4.63571 10.9091 4.63571H6.538L7.2432 1.21507L7.24894 1.15325C7.24727 1.15022 7.24497 1.14698 7.24219 1.14408L7.18649 1.08845ZM2.18182 11H0V4.4H2.18182V11ZM1.43182 5.18571H0.75V10.2143H1.43182V5.18571Z" fill="#3D3C38"/>
<path d="M4.10721 4.198L4.11116 4.19412L7.18649 1.08845L7.24219 1.14408C7.24497 1.14698 7.24727 1.15022 7.24894 1.15325L7.2432 1.21507L6.538 4.63571H10.9091C11.1222 4.63571 11.25 4.80697 11.25 4.95V6.05C11.25 6.08102 11.2453 6.11059 11.2322 6.14677L9.59113 10.0095L9.58809 10.0169C9.54576 10.1193 9.4328 10.2143 9.27273 10.2143H4.36364C4.15057 10.2143 4.02273 10.043 4.02273 9.9V4.4C4.02273 4.32154 4.05206 4.2521 4.10721 4.198Z" fill="#3D3C38"/>
<path d="M0.75 5.18571H1.43182V10.2143H0.75V5.18571Z" fill="#3D3C38"/>
</svg>
