<svg width="17" height="13" viewBox="0 0 17 13" fill="none" xmlns="http://www.w3.org/2000/svg">
<path d="M16.5001 10C16.7762 10 17.0033 9.77527 16.9689 9.50128C16.8587 8.6243 16.4601 7.80319 15.8285 7.17157C15.0784 6.42143 14.061 6 13.0001 6C11.9392 6 10.9218 6.42143 10.1717 7.17157C9.54005 7.80319 9.14148 8.6243 9.03129 9.50128C8.99687 9.77527 9.22395 10 9.5001 10L16.5001 10Z" fill="#C0C0C0"/>
<path d="M16.5001 10C16.7762 10 17.0033 9.77527 16.9689 9.50128C16.8587 8.6243 16.4601 7.80319 15.8285 7.17157C15.0784 6.42143 14.061 6 13.0001 6C11.9392 6 10.9218 6.42143 10.1717 7.17157C9.54005 7.80319 9.14148 8.6243 9.03129 9.50128C8.99687 9.77527 9.22395 10 9.5001 10L16.5001 10Z" fill="#C0C0C0"/>
<path d="M15 3C15 4.10457 14.1046 5 13 5C11.8954 5 11 4.10457 11 3C11 1.89543 11.8954 1 13 1C14.1046 1 15 1.89543 15 3Z" fill="#C0C0C0"/>
<path d="M15 3C15 4.10457 14.1046 5 13 5C11.8954 5 11 4.10457 11 3C11 1.89543 11.8954 1 13 1C14.1046 1 15 1.89543 15 3Z" fill="#C0C0C0"/>
<path d="M11.8683 12.3156C12.1444 12.3156 12.3705 12.0912 12.3463 11.8162C12.2295 10.4917 11.651 9.24386 10.7034 8.29621C9.6374 7.23022 8.1916 6.63135 6.68405 6.63135C5.1765 6.63135 3.7307 7.23022 2.66471 8.29621C1.71706 9.24386 1.13858 10.4917 1.0218 11.8162C0.997553 12.0912 1.2237 12.3156 1.49984 12.3156L11.8683 12.3156Z" fill="#C0C0C0"/>
<path d="M9.5265 2.84211C9.5265 4.41176 8.25404 5.68421 6.68439 5.68421C5.11474 5.68421 3.84229 4.41176 3.84229 2.84211C3.84229 1.27245 5.11474 0 6.68439 0C8.25404 0 9.5265 1.27245 9.5265 2.84211Z" fill="#C0C0C0"/>
<path d="M9.5265 2.84211C9.5265 4.41176 8.25404 5.68421 6.68439 5.68421C5.11474 5.68421 3.84229 4.41176 3.84229 2.84211C3.84229 1.27245 5.11474 0 6.68439 0C8.25404 0 9.5265 1.27245 9.5265 2.84211Z" fill="#C0C0C0"/>
</svg>
